Coordinates
version=1
nRows=24
nColumns=24
inDegrees=yes

Units are S.I. units (second, meters, Newtons, ...)
Angles are in degrees.

endheader
time	pelvis_tilt	pelvis_list	pelvis_rotation	pelvis_tx	pelvis_ty	pelvis_tz	hip_flexion_r	hip_adduction_r	hip_rotation_r	knee_angle_r	ankle_angle_r	subtalar_angle_r	mtp_angle_r	hip_flexion_l	hip_adduction_l	hip_rotation_l	knee_angle_l	ankle_angle_l	subtalar_angle_l	mtp_angle_l	lumbar_extension	lumbar_bending	lumbar_rotation
      0.84133333	     -2.94291936	     -3.47040426	     -1.98674261	     -0.40119213	      0.99523145	      0.31909801	     15.75516175	      6.71228262	      0.26069014	    -22.09932829	     10.85649833	    -10.89756316	      1.66419326	     15.97805349	     -4.25557504	     -3.65859777	    -71.32279026	     -9.77823407	    -13.47806015	      4.78659242	     -9.18882398	     12.12384077	     -0.70175406
      0.84550000	     -2.88277073	     -3.35361912	     -1.97707682	     -0.39625630	      0.99640162	      0.31958017	     15.14328280	      6.61919699	      0.35658664	    -21.61399508	     10.86606985	    -10.95660006	      1.67473899	     16.53868924	     -4.19889433	     -3.78270338	    -71.27384249	     -9.14135545	    -13.62770646	      4.52835953	     -9.30564206	     11.89823707	     -0.40391186
      0.84966667	     -2.86586666	     -3.21951751	     -1.97315527	     -0.39136511	      0.99744105	      0.32002461	     14.60401275	      6.50047498	      0.41992894	    -21.17883374	     10.89371809	    -10.93712690	      1.68122020	     17.14522964	     -4.11304999	     -3.90262522	    -71.18371573	     -8.50918581	    -13.82006304	      4.40888885	     -9.36922362	     11.68412335	     -0.25796014
      0.85383333	     -2.81173350	     -3.11020839	     -1.98164423	     -0.38641127	      0.99855880	      0.32052117	     13.97618939	      6.41958371	      0.54341231	    -20.64459400	     10.88418477	    -11.02688963	      1.86836906	     17.68758290	     -4.06443552	     -4.03471853	    -71.02900390	     -7.82030161	    -13.82608101	      1.20803520	     -9.45390656	     11.47065999	      0.05265578
      0.85800000	     -2.76367204	     -2.94959500	     -1.99187973	     -0.38147904	      0.99962358	      0.32097550	     13.38775252	      6.27142167	      0.61743358	    -20.18215110	     10.95394895	    -10.98417408	      1.87165233	     18.22194535	     -3.94898751	     -4.17201698	    -70.80012737	     -7.21145955	    -13.90067348	      1.20804276	     -9.54407139	     11.20379078	      0.31518864
      0.86216667	     -2.71572289	     -2.79103091	     -2.00910328	     -0.37656724	      1.00065869	      0.32142022	     12.80068823	      6.12413520	      0.69314509	    -19.71562528	     10.96820555	    -10.94894569	      1.87265435	     18.74509897	     -3.82903189	     -4.30497068	    -70.51869368	     -6.60160414	    -13.99409135	      1.20648430	     -9.64300153	     10.94932142	      0.50581540
      0.86633333	     -2.63291918	     -2.64004808	     -2.03122348	     -0.37158837	      1.00175148	      0.32189796	     12.14720512	      5.98799971	      0.79039387	    -19.19710646	     11.01128607	    -10.95123898	      1.87409099	     19.20428458	     -3.72851871	     -4.45206984	    -70.16395508	     -6.01668453	    -13.96406134	      1.19204142	     -9.76509747	     10.68609084	      0.81968439
      0.87050000	     -2.55102811	     -2.47639682	     -2.05638626	     -0.36664549	      1.00278672	      0.32234346	     11.50670540	      5.83225254	      0.87373875	    -18.69687828	     11.04526069	    -10.92544665	      1.87585953	     19.65649359	     -3.60395856	     -4.59404783	    -69.76225213	     -5.43421654	    -13.95675130	      1.17067681	     -9.88616541	     10.42001369	      1.08199990
      0.87466667	     -2.51969199	     -2.29237918	     -2.08311331	     -0.36172722	      1.00371142	      0.32276781	     10.93777597	      5.65178856	      0.94496948	    -18.22819042	     11.06033708	    -10.87313426	      1.87638443	     20.15332443	     -3.44606027	     -4.72080886	    -69.30667641	     -4.85439107	    -13.93905656	      1.15746018	     -9.95848274	     10.14281328	      1.27271254
      0.87883333	     -2.44529428	     -2.13996045	     -2.11184998	     -0.35676207	      1.00465077	      0.32321357	     10.30248564	      5.50397362	      1.01180311	    -17.72524251	     11.12055072	    -10.83306663	      1.87746011	     20.58513712	     -3.33572256	     -4.85974781	    -68.80425701	     -4.27050956	    -13.81986582	      1.13118943	    -10.06411769	      9.88180962	      1.56382023
      0.88300000	     -2.41643931	     -1.95099470	     -2.13770193	     -0.35183991	      1.00549223	      0.32360048	      9.74029928	      5.30963743	      1.05734006	    -17.26228671	     11.12946025	    -10.76124495	      1.87680792	     21.05518971	     -3.16254408	     -4.97406978	    -68.24023799	     -3.71885480	    -13.75427883	      1.12006788	    -10.12719063	      9.61400480	      1.72012770
      0.88716667	     -2.32113565	     -1.78624850	     -2.16436727	     -0.34687707	      1.00638874	      0.32402514	      9.08688632	      5.14071165	      1.10115797	    -16.76540398	     11.20782408	    -10.68388268	      1.87709618	     21.43326820	     -3.03028033	     -5.10231721	    -67.62590941	     -3.15119263	    -13.56166919	      1.09721579	    -10.26231145	      9.33518269	      1.99131014
      0.89133333	     -2.29399320	     -1.59924990	     -2.19033042	     -0.34195189	      1.00714563	      0.32438028	      8.53079728	      4.94154599	      1.12738175	    -16.30867459	     11.22352191	    -10.59083694	      1.87580702	     21.87393763	     -2.85051726	     -5.20107771	    -66.95511932	     -2.61879954	    -13.42711973	      1.08657881	    -10.31786415	      9.07600355	      2.15013448
      0.89550000	     -2.22060664	     -1.44926114	     -2.21080161	     -0.33700126	      1.00790524	      0.32477197	      7.90657698	      4.78308667	      1.14943967	    -15.82044994	     11.31357704	    -10.49253434	      1.87546629	     22.25202161	     -2.72488707	     -5.30375303	    -66.25102678	     -2.06707617	    -13.17008157	      1.06760407	    -10.42859352	      8.81727268	      2.39609682
      0.89966667	     -2.18117708	     -1.29209262	     -2.23186157	     -0.33207866	      1.00855898	      0.32513445	      7.33473565	      4.61354288	      1.15706768	    -15.35815291	     11.36400034	    -10.38603639	      1.87371034	     22.65537575	     -2.58072955	     -5.38995884	    -65.49890741	     -1.53766429	    -12.93150265	      1.05035907	    -10.50321836	      8.57118926	      2.59228193
      0.90383333	     -2.15443221	     -1.12230072	     -2.25091986	     -0.32714827	      1.00915735	      0.32545539	      6.78536754	      4.42536685	      1.14833032	    -14.91454576	     11.42988879	    -10.26159693	      1.87194307	     23.05333823	     -2.41216890	     -5.46496378	    -64.68753036	     -1.03474288	    -12.67272595	      1.03747498	    -10.55891917	      8.32395553	      2.76300622
      0.90800000	     -2.14309679	     -0.95326606	     -2.26811229	     -0.32222540	      1.00968774	      0.32575425	      6.25950936	      4.23486710	      1.12481202	    -14.48088170	     11.44969976	    -10.13154809	      1.87016123	     23.45282462	     -2.23459870	     -5.52139290	    -63.82487138	     -0.55895051	    -12.42209720	      1.03482148	    -10.59518761	      8.08814684	      2.88648819
      0.91216667	     -2.07274205	     -0.81633186	     -2.28052311	     -0.31728731	      1.01024324	      0.32607024	      5.65521119	      4.07837629	      1.10241343	    -14.02187013	     11.55985044	     -9.98306402	      1.86972349	     23.77285737	     -2.09837257	     -5.57671187	    -62.92466843	     -0.06995800	    -12.08550119	      1.02961748	    -10.70713628	      7.86566413	      3.07672905
      0.91633333	     -2.06833716	     -0.65505456	     -2.29329946	     -0.31236425	      1.01066358	      0.32633857	      5.14282299	      3.89251444	      1.06453798	    -13.59857139	     11.58001277	     -9.84640746	      1.86816514	     24.14754532	     -1.91806273	     -5.60760401	    -61.96467853	      0.35320750	    -11.81004147	      1.03189493	    -10.73705102	      7.64078486	      3.18370853
      0.92050000	     -2.01056295	     -0.53640962	     -2.30339283	     -0.30743206	      1.01108901	      0.32661536	      4.55962420	      3.75229666	      1.03139419	    -13.15339073	     11.69581778	     -9.68022614	      1.86821484	     24.45144794	     -1.78986909	     -5.63677699	    -60.97612631	      0.80438456	    -11.44354857	      1.03339595	    -10.83988833	      7.44842050	      3.36346439
      0.92466667	     -1.99671431	     -0.41406001	     -2.31214153	     -0.30250711	      1.01139271	      0.32686659	      4.03437325	      3.60746610	      0.99090975	    -12.72740513	     11.76577046	     -9.53485941	      1.86684526	     24.78768335	     -1.64816738	     -5.64635826	    -59.93963523	      1.20343406	    -11.11412774	      1.03748300	    -10.88751214	      7.26385070	      3.49840051
      0.92883333	     -1.97575604	     -0.29114532	     -2.31996294	     -0.29757103	      1.01167737	      0.32709824	      3.50011273	      3.46015361	      0.94727273	    -12.29694669	     11.83282025	     -9.38675182	      1.86560580	     25.09442749	     -1.49857426	     -5.64502851	    -58.84554401	      1.56578534	    -10.78483669	      1.04460012	    -10.94280172	      7.08062683	      3.62274119
      0.93300000	     -1.94076374	     -0.18694043	     -2.32597119	     -0.29263061	      1.01191560	      0.32732055	      2.94812185	      3.33201090	      0.90962280	    -11.86346127	     11.89689043	     -9.24238510	      1.86438496	     25.37066999	     -1.36513600	     -5.62782967	    -57.71274810	      1.90142609	    -10.45487611	      1.05479249	    -11.01713685	      6.92141771	      3.74210108
      0.93716667	     -1.94540051	     -0.06957406	     -2.33508790	     -0.28769401	      1.01206222	      0.32752190	      2.45180322	      3.18967094	      0.86701650	    -11.45269332	     11.92788082	     -9.11511731	      1.86320168	     25.66741725	     -1.20945187	     -5.59803828	    -56.51788721	      2.17349146	    -10.15814627	      1.06548553	    -11.03310454	      6.75735753	      3.82622576
